<svg xmlns="http://www.w3.org/2000/svg" viewBox="0 0 32 32" shape-rendering="crispEdges"><defs><clipPath id="r"><rect width="32" height="32" rx="7.20"></rect></clipPath></defs><g clip-path="url(#r)"><rect width="32" height="32" fill="#000000"></rect><rect x="0" y="3" width="32" height="1" fill="#ffffff"></rect><rect x="0" y="4" width="1" height="1" fill="#d4d7da"></rect><rect x="1" y="4" width="1" height="1" fill="#9aa0a6"></rect><rect x="2" y="4" width="1" height="1" fill="#d4d7da"></rect><rect x="3" y="4" width="1" height="1" fill="#9aa0a6"></rect><rect x="4" y="4" width="1" height="1" fill="#d4d7da"></rect><rect x="5" y="4" width="1" height="1" fill="#9aa0a6"></rect><rect x="6" y="4" width="1" height="1" fill="#d4d7da"></rect><rect x="7" y="4" width="1" height="1" fill="#9aa0a6"></rect><rect x="8" y="4" width="1" height="1" fill="#d4d7da"></rect><rect x="9" y="4" width="1" height="1" fill="#9aa0a6"></rect><rect x="10" y="4" width="1" height="1" fill="#d4d7da"></rect><rect x="11" y="4" width="1" height="1" fill="#9aa0a6"></rect><rect x="12" y="4" width="1" height="1" fill="#d4d7da"></rect><rect x="13" y="4" width="1" height="1" fill="#9aa0a6"></rect><rect x="14" y="4" width="1" height="1" fill="#d4d7da"></rect><rect x="15" y="4" width="1" height="1" fill="#9aa0a6"></rect><rect x="16" y="4" width="1" height="1" fill="#d4d7da"></rect><rect x="17" y="4" width="1" height="1" fill="#9aa0a6"></rect><rect x="18" y="4" width="1" height="1" fill="#d4d7da"></rect><rect x="19" y="4" width="1" height="1" fill="#9aa0a6"></rect><rect x="20" y="4" width="1" height="1" fill="#d4d7da"></rect><rect x="21" y="4" width="1" height="1" fill="#9aa0a6"></rect><rect x="22" y="4" width="1" height="1" fill="#d4d7da"></rect><rect x="23" y="4" width="1" height="1" fill="#9aa0a6"></rect><rect x="24" y="4" width="1" height="1" fill="#d4d7da"></rect><rect x="25" y="4" width="1" height="1" fill="#9aa0a6"></rect><rect x="26" y="4" width="1" height="1" fill="#d4d7da"></rect><rect x="27" y="4" width="1" height="1" fill="#9aa0a6"></rect><rect x="28" y="4" width="1" height="1" fill="#d4d7da"></rect><rect x="29" y="4" width="1" height="1" fill="#9aa0a6"></rect><rect x="30" y="4" width="1" height="1" fill="#d4d7da"></rect><rect x="31" y="4" width="1" height="1" fill="#9aa0a6"></rect><rect x="0" y="5" width="1" height="1" fill="#9aa0a6"></rect><rect x="1" y="5" width="1" height="1" fill="#d4d7da"></rect><rect x="2" y="5" width="1" height="1" fill="#9aa0a6"></rect><rect x="3" y="5" width="1" height="1" fill="#d4d7da"></rect><rect x="4" y="5" width="1" height="1" fill="#9aa0a6"></rect><rect x="5" y="5" width="1" height="1" fill="#d4d7da"></rect><rect x="6" y="5" width="1" height="1" fill="#9aa0a6"></rect><rect x="7" y="5" width="1" height="1" fill="#d4d7da"></rect><rect x="8" y="5" width="1" height="1" fill="#9aa0a6"></rect><rect x="9" y="5" width="1" height="1" fill="#d4d7da"></rect><rect x="10" y="5" width="1" height="1" fill="#9aa0a6"></rect><rect x="11" y="5" width="1" height="1" fill="#d4d7da"></rect><rect x="12" y="5" width="1" height="1" fill="#9aa0a6"></rect><rect x="13" y="5" width="1" height="1" fill="#d4d7da"></rect><rect x="14" y="5" width="1" height="1" fill="#9aa0a6"></rect><rect x="15" y="5" width="1" height="1" fill="#d4d7da"></rect><rect x="16" y="5" width="1" height="1" fill="#9aa0a6"></rect><rect x="17" y="5" width="1" height="1" fill="#d4d7da"></rect><rect x="18" y="5" width="1" height="1" fill="#9aa0a6"></rect><rect x="19" y="5" width="1" height="1" fill="#d4d7da"></rect><rect x="20" y="5" width="1" height="1" fill="#9aa0a6"></rect><rect x="21" y="5" width="1" height="1" fill="#d4d7da"></rect><rect x="22" y="5" width="1" height="1" fill="#9aa0a6"></rect><rect x="23" y="5" width="1" height="1" fill="#d4d7da"></rect><rect x="24" y="5" width="1" height="1" fill="#9aa0a6"></rect><rect x="25" y="5" width="1" height="1" fill="#d4d7da"></rect><rect x="26" y="5" width="1" height="1" fill="#9aa0a6"></rect><rect x="27" y="5" width="1" height="1" fill="#d4d7da"></rect><rect x="28" y="5" width="1" height="1" fill="#9aa0a6"></rect><rect x="29" y="5" width="1" height="1" fill="#d4d7da"></rect><rect x="30" y="5" width="1" height="1" fill="#9aa0a6"></rect><rect x="31" y="5" width="1" height="1" fill="#d4d7da"></rect><rect x="0" y="6" width="3" height="1" fill="#0c0e11"></rect><rect x="3" y="6" width="1" height="1" fill="#aab0b5"></rect><rect x="4" y="6" width="3" height="1" fill="#ffffff"></rect><rect x="7" y="6" width="1" height="1" fill="#aab0b5"></rect><rect x="8" y="6" width="10" height="1" fill="#0c0e11"></rect><rect x="18" y="6" width="1" height="1" fill="#aab0b5"></rect><rect x="19" y="6" width="3" height="1" fill="#ffffff"></rect><rect x="22" y="6" width="1" height="1" fill="#aab0b5"></rect><rect x="23" y="6" width="9" height="1" fill="#0c0e11"></rect><rect x="0" y="7" width="3" height="1" fill="#0c0e11"></rect><rect x="3" y="7" width="1" height="1" fill="#aab0b5"></rect><rect x="4" y="7" width="3" height="1" fill="#ffffff"></rect><rect x="7" y="7" width="1" height="1" fill="#aab0b5"></rect><rect x="8" y="7" width="10" height="1" fill="#0c0e11"></rect><rect x="18" y="7" width="1" height="1" fill="#aab0b5"></rect><rect x="19" y="7" width="3" height="1" fill="#ffffff"></rect><rect x="22" y="7" width="1" height="1" fill="#aab0b5"></rect><rect x="23" y="7" width="9" height="1" fill="#0c0e11"></rect><rect x="0" y="8" width="3" height="1" fill="#0c0e11"></rect><rect x="3" y="8" width="1" height="1" fill="#aab0b5"></rect><rect x="4" y="8" width="3" height="1" fill="#ffffff"></rect><rect x="7" y="8" width="1" height="1" fill="#aab0b5"></rect><rect x="8" y="8" width="10" height="1" fill="#0c0e11"></rect><rect x="18" y="8" width="1" height="1" fill="#aab0b5"></rect><rect x="19" y="8" width="3" height="1" fill="#ffffff"></rect><rect x="22" y="8" width="1" height="1" fill="#aab0b5"></rect><rect x="23" y="8" width="9" height="1" fill="#0c0e11"></rect><rect x="0" y="9" width="3" height="1" fill="#0c0e11"></rect><rect x="3" y="9" width="1" height="1" fill="#aab0b5"></rect><rect x="4" y="9" width="3" height="1" fill="#ffffff"></rect><rect x="7" y="9" width="1" height="1" fill="#aab0b5"></rect><rect x="8" y="9" width="10" height="1" fill="#0c0e11"></rect><rect x="18" y="9" width="1" height="1" fill="#aab0b5"></rect><rect x="19" y="9" width="3" height="1" fill="#ffffff"></rect><rect x="22" y="9" width="1" height="1" fill="#aab0b5"></rect><rect x="23" y="9" width="9" height="1" fill="#0c0e11"></rect><rect x="0" y="10" width="3" height="1" fill="#0c0e11"></rect><rect x="3" y="10" width="1" height="1" fill="#aab0b5"></rect><rect x="4" y="10" width="3" height="1" fill="#ffffff"></rect><rect x="7" y="10" width="1" height="1" fill="#aab0b5"></rect><rect x="8" y="10" width="10" height="1" fill="#0c0e11"></rect><rect x="18" y="10" width="1" height="1" fill="#aab0b5"></rect><rect x="19" y="10" width="3" height="1" fill="#ffffff"></rect><rect x="22" y="10" width="1" height="1" fill="#aab0b5"></rect><rect x="23" y="10" width="9" height="1" fill="#0c0e11"></rect><rect x="0" y="11" width="3" height="1" fill="#0c0e11"></rect><rect x="3" y="11" width="1" height="1" fill="#aab0b5"></rect><rect x="4" y="11" width="3" height="1" fill="#ffffff"></rect><rect x="7" y="11" width="1" height="1" fill="#aab0b5"></rect><rect x="8" y="11" width="10" height="1" fill="#0c0e11"></rect><rect x="18" y="11" width="1" height="1" fill="#aab0b5"></rect><rect x="19" y="11" width="3" height="1" fill="#ffffff"></rect><rect x="22" y="11" width="1" height="1" fill="#aab0b5"></rect><rect x="23" y="11" width="9" height="1" fill="#0c0e11"></rect><rect x="0" y="12" width="1" height="1" fill="#5b6166"></rect><rect x="1" y="12" width="1" height="1" fill="#383d42"></rect><rect x="2" y="12" width="1" height="1" fill="#5b6166"></rect><rect x="3" y="12" width="1" height="1" fill="#383d42"></rect><rect x="4" y="12" width="1" height="1" fill="#5b6166"></rect><rect x="5" y="12" width="1" height="1" fill="#383d42"></rect><rect x="6" y="12" width="1" height="1" fill="#5b6166"></rect><rect x="7" y="12" width="1" height="1" fill="#383d42"></rect><rect x="8" y="12" width="1" height="1" fill="#5b6166"></rect><rect x="9" y="12" width="1" height="1" fill="#383d42"></rect><rect x="10" y="12" width="1" height="1" fill="#5b6166"></rect><rect x="11" y="12" width="1" height="1" fill="#383d42"></rect><rect x="12" y="12" width="1" height="1" fill="#5b6166"></rect><rect x="13" y="12" width="1" height="1" fill="#383d42"></rect><rect x="14" y="12" width="1" height="1" fill="#5b6166"></rect><rect x="15" y="12" width="1" height="1" fill="#383d42"></rect><rect x="16" y="12" width="1" height="1" fill="#5b6166"></rect><rect x="17" y="12" width="1" height="1" fill="#383d42"></rect><rect x="18" y="12" width="1" height="1" fill="#5b6166"></rect><rect x="19" y="12" width="1" height="1" fill="#383d42"></rect><rect x="20" y="12" width="1" height="1" fill="#5b6166"></rect><rect x="21" y="12" width="1" height="1" fill="#383d42"></rect><rect x="22" y="12" width="1" height="1" fill="#5b6166"></rect><rect x="23" y="12" width="1" height="1" fill="#383d42"></rect><rect x="24" y="12" width="1" height="1" fill="#5b6166"></rect><rect x="25" y="12" width="1" height="1" fill="#383d42"></rect><rect x="26" y="12" width="1" height="1" fill="#5b6166"></rect><rect x="27" y="12" width="1" height="1" fill="#383d42"></rect><rect x="28" y="12" width="1" height="1" fill="#5b6166"></rect><rect x="29" y="12" width="1" height="1" fill="#383d42"></rect><rect x="30" y="12" width="1" height="1" fill="#5b6166"></rect><rect x="31" y="12" width="1" height="1" fill="#383d42"></rect><rect x="0" y="13" width="1" height="1" fill="#383d42"></rect><rect x="1" y="13" width="1" height="1" fill="#5b6166"></rect><rect x="2" y="13" width="1" height="1" fill="#383d42"></rect><rect x="3" y="13" width="1" height="1" fill="#5b6166"></rect><rect x="4" y="13" width="1" height="1" fill="#383d42"></rect><rect x="5" y="13" width="1" height="1" fill="#5b6166"></rect><rect x="6" y="13" width="1" height="1" fill="#383d42"></rect><rect x="7" y="13" width="1" height="1" fill="#5b6166"></rect><rect x="8" y="13" width="1" height="1" fill="#383d42"></rect><rect x="9" y="13" width="1" height="1" fill="#5b6166"></rect><rect x="10" y="13" width="1" height="1" fill="#383d42"></rect><rect x="11" y="13" width="1" height="1" fill="#5b6166"></rect><rect x="12" y="13" width="1" height="1" fill="#383d42"></rect><rect x="13" y="13" width="1" height="1" fill="#5b6166"></rect><rect x="14" y="13" width="1" height="1" fill="#383d42"></rect><rect x="15" y="13" width="1" height="1" fill="#5b6166"></rect><rect x="16" y="13" width="1" height="1" fill="#383d42"></rect><rect x="17" y="13" width="1" height="1" fill="#5b6166"></rect><rect x="18" y="13" width="1" height="1" fill="#383d42"></rect><rect x="19" y="13" width="1" height="1" fill="#5b6166"></rect><rect x="20" y="13" width="1" height="1" fill="#383d42"></rect><rect x="21" y="13" width="1" height="1" fill="#5b6166"></rect><rect x="22" y="13" width="1" height="1" fill="#383d42"></rect><rect x="23" y="13" width="1" height="1" fill="#5b6166"></rect><rect x="24" y="13" width="1" height="1" fill="#383d42"></rect><rect x="25" y="13" width="1" height="1" fill="#5b6166"></rect><rect x="26" y="13" width="1" height="1" fill="#383d42"></rect><rect x="27" y="13" width="1" height="1" fill="#5b6166"></rect><rect x="28" y="13" width="1" height="1" fill="#383d42"></rect><rect x="29" y="13" width="1" height="1" fill="#5b6166"></rect><rect x="30" y="13" width="1" height="1" fill="#383d42"></rect><rect x="31" y="13" width="1" height="1" fill="#5b6166"></rect><rect x="0" y="14" width="32" height="1" fill="#24282c"></rect><rect x="0" y="17" width="32" height="1" fill="#ffffff"></rect><rect x="0" y="18" width="1" height="1" fill="#d4d7da"></rect><rect x="1" y="18" width="1" height="1" fill="#9aa0a6"></rect><rect x="2" y="18" width="1" height="1" fill="#d4d7da"></rect><rect x="3" y="18" width="1" height="1" fill="#9aa0a6"></rect><rect x="4" y="18" width="1" height="1" fill="#d4d7da"></rect><rect x="5" y="18" width="1" height="1" fill="#9aa0a6"></rect><rect x="6" y="18" width="1" height="1" fill="#d4d7da"></rect><rect x="7" y="18" width="1" height="1" fill="#9aa0a6"></rect><rect x="8" y="18" width="1" height="1" fill="#d4d7da"></rect><rect x="9" y="18" width="1" height="1" fill="#9aa0a6"></rect><rect x="10" y="18" width="1" height="1" fill="#d4d7da"></rect><rect x="11" y="18" width="1" height="1" fill="#9aa0a6"></rect><rect x="12" y="18" width="1" height="1" fill="#d4d7da"></rect><rect x="13" y="18" width="1" height="1" fill="#9aa0a6"></rect><rect x="14" y="18" width="1" height="1" fill="#d4d7da"></rect><rect x="15" y="18" width="1" height="1" fill="#9aa0a6"></rect><rect x="16" y="18" width="1" height="1" fill="#d4d7da"></rect><rect x="17" y="18" width="1" height="1" fill="#9aa0a6"></rect><rect x="18" y="18" width="1" height="1" fill="#d4d7da"></rect><rect x="19" y="18" width="1" height="1" fill="#9aa0a6"></rect><rect x="20" y="18" width="1" height="1" fill="#d4d7da"></rect><rect x="21" y="18" width="1" height="1" fill="#9aa0a6"></rect><rect x="22" y="18" width="1" height="1" fill="#d4d7da"></rect><rect x="23" y="18" width="1" height="1" fill="#9aa0a6"></rect><rect x="24" y="18" width="1" height="1" fill="#d4d7da"></rect><rect x="25" y="18" width="1" height="1" fill="#9aa0a6"></rect><rect x="26" y="18" width="1" height="1" fill="#d4d7da"></rect><rect x="27" y="18" width="1" height="1" fill="#9aa0a6"></rect><rect x="28" y="18" width="1" height="1" fill="#d4d7da"></rect><rect x="29" y="18" width="1" height="1" fill="#9aa0a6"></rect><rect x="30" y="18" width="1" height="1" fill="#d4d7da"></rect><rect x="31" y="18" width="1" height="1" fill="#9aa0a6"></rect><rect x="0" y="19" width="1" height="1" fill="#9aa0a6"></rect><rect x="1" y="19" width="1" height="1" fill="#d4d7da"></rect><rect x="2" y="19" width="1" height="1" fill="#9aa0a6"></rect><rect x="3" y="19" width="1" height="1" fill="#d4d7da"></rect><rect x="4" y="19" width="1" height="1" fill="#9aa0a6"></rect><rect x="5" y="19" width="1" height="1" fill="#d4d7da"></rect><rect x="6" y="19" width="1" height="1" fill="#9aa0a6"></rect><rect x="7" y="19" width="1" height="1" fill="#d4d7da"></rect><rect x="8" y="19" width="1" height="1" fill="#9aa0a6"></rect><rect x="9" y="19" width="1" height="1" fill="#d4d7da"></rect><rect x="10" y="19" width="1" height="1" fill="#9aa0a6"></rect><rect x="11" y="19" width="1" height="1" fill="#d4d7da"></rect><rect x="12" y="19" width="1" height="1" fill="#9aa0a6"></rect><rect x="13" y="19" width="1" height="1" fill="#d4d7da"></rect><rect x="14" y="19" width="1" height="1" fill="#9aa0a6"></rect><rect x="15" y="19" width="1" height="1" fill="#d4d7da"></rect><rect x="16" y="19" width="1" height="1" fill="#9aa0a6"></rect><rect x="17" y="19" width="1" height="1" fill="#d4d7da"></rect><rect x="18" y="19" width="1" height="1" fill="#9aa0a6"></rect><rect x="19" y="19" width="1" height="1" fill="#d4d7da"></rect><rect x="20" y="19" width="1" height="1" fill="#9aa0a6"></rect><rect x="21" y="19" width="1" height="1" fill="#d4d7da"></rect><rect x="22" y="19" width="1" height="1" fill="#9aa0a6"></rect><rect x="23" y="19" width="1" height="1" fill="#d4d7da"></rect><rect x="24" y="19" width="1" height="1" fill="#9aa0a6"></rect><rect x="25" y="19" width="1" height="1" fill="#d4d7da"></rect><rect x="26" y="19" width="1" height="1" fill="#9aa0a6"></rect><rect x="27" y="19" width="1" height="1" fill="#d4d7da"></rect><rect x="28" y="19" width="1" height="1" fill="#9aa0a6"></rect><rect x="29" y="19" width="1" height="1" fill="#d4d7da"></rect><rect x="30" y="19" width="1" height="1" fill="#9aa0a6"></rect><rect x="31" y="19" width="1" height="1" fill="#d4d7da"></rect><rect x="0" y="20" width="12" height="1" fill="#0c0e11"></rect><rect x="12" y="20" width="1" height="1" fill="#6b7176"></rect><rect x="13" y="20" width="3" height="1" fill="#b9bec2"></rect><rect x="16" y="20" width="1" height="1" fill="#6b7176"></rect><rect x="17" y="20" width="11" height="1" fill="#0c0e11"></rect><rect x="28" y="20" width="1" height="1" fill="#6b7176"></rect><rect x="29" y="20" width="3" height="1" fill="#b9bec2"></rect><rect x="0" y="21" width="12" height="1" fill="#0c0e11"></rect><rect x="12" y="21" width="1" height="1" fill="#6b7176"></rect><rect x="13" y="21" width="3" height="1" fill="#b9bec2"></rect><rect x="16" y="21" width="1" height="1" fill="#6b7176"></rect><rect x="17" y="21" width="11" height="1" fill="#0c0e11"></rect><rect x="28" y="21" width="1" height="1" fill="#6b7176"></rect><rect x="29" y="21" width="3" height="1" fill="#b9bec2"></rect><rect x="0" y="22" width="12" height="1" fill="#0c0e11"></rect><rect x="12" y="22" width="1" height="1" fill="#6b7176"></rect><rect x="13" y="22" width="3" height="1" fill="#b9bec2"></rect><rect x="16" y="22" width="1" height="1" fill="#6b7176"></rect><rect x="17" y="22" width="11" height="1" fill="#0c0e11"></rect><rect x="28" y="22" width="1" height="1" fill="#6b7176"></rect><rect x="29" y="22" width="3" height="1" fill="#b9bec2"></rect><rect x="0" y="23" width="12" height="1" fill="#0c0e11"></rect><rect x="12" y="23" width="1" height="1" fill="#6b7176"></rect><rect x="13" y="23" width="3" height="1" fill="#b9bec2"></rect><rect x="16" y="23" width="1" height="1" fill="#6b7176"></rect><rect x="17" y="23" width="11" height="1" fill="#0c0e11"></rect><rect x="28" y="23" width="1" height="1" fill="#6b7176"></rect><rect x="29" y="23" width="3" height="1" fill="#b9bec2"></rect><rect x="0" y="24" width="12" height="1" fill="#0c0e11"></rect><rect x="12" y="24" width="1" height="1" fill="#6b7176"></rect><rect x="13" y="24" width="3" height="1" fill="#b9bec2"></rect><rect x="16" y="24" width="1" height="1" fill="#6b7176"></rect><rect x="17" y="24" width="11" height="1" fill="#0c0e11"></rect><rect x="28" y="24" width="1" height="1" fill="#6b7176"></rect><rect x="29" y="24" width="3" height="1" fill="#b9bec2"></rect><rect x="0" y="25" width="12" height="1" fill="#0c0e11"></rect><rect x="12" y="25" width="1" height="1" fill="#6b7176"></rect><rect x="13" y="25" width="3" height="1" fill="#b9bec2"></rect><rect x="16" y="25" width="1" height="1" fill="#6b7176"></rect><rect x="17" y="25" width="11" height="1" fill="#0c0e11"></rect><rect x="28" y="25" width="1" height="1" fill="#6b7176"></rect><rect x="29" y="25" width="3" height="1" fill="#b9bec2"></rect><rect x="0" y="26" width="1" height="1" fill="#5b6166"></rect><rect x="1" y="26" width="1" height="1" fill="#383d42"></rect><rect x="2" y="26" width="1" height="1" fill="#5b6166"></rect><rect x="3" y="26" width="1" height="1" fill="#383d42"></rect><rect x="4" y="26" width="1" height="1" fill="#5b6166"></rect><rect x="5" y="26" width="1" height="1" fill="#383d42"></rect><rect x="6" y="26" width="1" height="1" fill="#5b6166"></rect><rect x="7" y="26" width="1" height="1" fill="#383d42"></rect><rect x="8" y="26" width="1" height="1" fill="#5b6166"></rect><rect x="9" y="26" width="1" height="1" fill="#383d42"></rect><rect x="10" y="26" width="1" height="1" fill="#5b6166"></rect><rect x="11" y="26" width="1" height="1" fill="#383d42"></rect><rect x="12" y="26" width="1" height="1" fill="#5b6166"></rect><rect x="13" y="26" width="1" height="1" fill="#383d42"></rect><rect x="14" y="26" width="1" height="1" fill="#5b6166"></rect><rect x="15" y="26" width="1" height="1" fill="#383d42"></rect><rect x="16" y="26" width="1" height="1" fill="#5b6166"></rect><rect x="17" y="26" width="1" height="1" fill="#383d42"></rect><rect x="18" y="26" width="1" height="1" fill="#5b6166"></rect><rect x="19" y="26" width="1" height="1" fill="#383d42"></rect><rect x="20" y="26" width="1" height="1" fill="#5b6166"></rect><rect x="21" y="26" width="1" height="1" fill="#383d42"></rect><rect x="22" y="26" width="1" height="1" fill="#5b6166"></rect><rect x="23" y="26" width="1" height="1" fill="#383d42"></rect><rect x="24" y="26" width="1" height="1" fill="#5b6166"></rect><rect x="25" y="26" width="1" height="1" fill="#383d42"></rect><rect x="26" y="26" width="1" height="1" fill="#5b6166"></rect><rect x="27" y="26" width="1" height="1" fill="#383d42"></rect><rect x="28" y="26" width="1" height="1" fill="#5b6166"></rect><rect x="29" y="26" width="1" height="1" fill="#383d42"></rect><rect x="30" y="26" width="1" height="1" fill="#5b6166"></rect><rect x="31" y="26" width="1" height="1" fill="#383d42"></rect><rect x="0" y="27" width="1" height="1" fill="#383d42"></rect><rect x="1" y="27" width="1" height="1" fill="#5b6166"></rect><rect x="2" y="27" width="1" height="1" fill="#383d42"></rect><rect x="3" y="27" width="1" height="1" fill="#5b6166"></rect><rect x="4" y="27" width="1" height="1" fill="#383d42"></rect><rect x="5" y="27" width="1" height="1" fill="#5b6166"></rect><rect x="6" y="27" width="1" height="1" fill="#383d42"></rect><rect x="7" y="27" width="1" height="1" fill="#5b6166"></rect><rect x="8" y="27" width="1" height="1" fill="#383d42"></rect><rect x="9" y="27" width="1" height="1" fill="#5b6166"></rect><rect x="10" y="27" width="1" height="1" fill="#383d42"></rect><rect x="11" y="27" width="1" height="1" fill="#5b6166"></rect><rect x="12" y="27" width="1" height="1" fill="#383d42"></rect><rect x="13" y="27" width="1" height="1" fill="#5b6166"></rect><rect x="14" y="27" width="1" height="1" fill="#383d42"></rect><rect x="15" y="27" width="1" height="1" fill="#5b6166"></rect><rect x="16" y="27" width="1" height="1" fill="#383d42"></rect><rect x="17" y="27" width="1" height="1" fill="#5b6166"></rect><rect x="18" y="27" width="1" height="1" fill="#383d42"></rect><rect x="19" y="27" width="1" height="1" fill="#5b6166"></rect><rect x="20" y="27" width="1" height="1" fill="#383d42"></rect><rect x="21" y="27" width="1" height="1" fill="#5b6166"></rect><rect x="22" y="27" width="1" height="1" fill="#383d42"></rect><rect x="23" y="27" width="1" height="1" fill="#5b6166"></rect><rect x="24" y="27" width="1" height="1" fill="#383d42"></rect><rect x="25" y="27" width="1" height="1" fill="#5b6166"></rect><rect x="26" y="27" width="1" height="1" fill="#383d42"></rect><rect x="27" y="27" width="1" height="1" fill="#5b6166"></rect><rect x="28" y="27" width="1" height="1" fill="#383d42"></rect><rect x="29" y="27" width="1" height="1" fill="#5b6166"></rect><rect x="30" y="27" width="1" height="1" fill="#383d42"></rect><rect x="31" y="27" width="1" height="1" fill="#5b6166"></rect><rect x="0" y="28" width="32" height="1" fill="#24282c"></rect></g></svg>