<svg xmlns="http://www.w3.org/2000/svg" viewBox="0 0 32 32" shape-rendering="crispEdges"><g><rect x="0" y="10" width="32" height="1" fill="#ffd591"></rect><rect x="0" y="11" width="1" height="1" fill="#9c6a2c"></rect><rect x="1" y="11" width="1" height="1" fill="#d99a4e"></rect><rect x="2" y="11" width="1" height="1" fill="#9c6a2c"></rect><rect x="3" y="11" width="1" height="1" fill="#d99a4e"></rect><rect x="4" y="11" width="1" height="1" fill="#9c6a2c"></rect><rect x="5" y="11" width="1" height="1" fill="#d99a4e"></rect><rect x="6" y="11" width="1" height="1" fill="#9c6a2c"></rect><rect x="7" y="11" width="1" height="1" fill="#d99a4e"></rect><rect x="8" y="11" width="1" height="1" fill="#9c6a2c"></rect><rect x="9" y="11" width="1" height="1" fill="#d99a4e"></rect><rect x="10" y="11" width="1" height="1" fill="#9c6a2c"></rect><rect x="11" y="11" width="1" height="1" fill="#d99a4e"></rect><rect x="12" y="11" width="1" height="1" fill="#9c6a2c"></rect><rect x="13" y="11" width="1" height="1" fill="#d99a4e"></rect><rect x="14" y="11" width="1" height="1" fill="#9c6a2c"></rect><rect x="15" y="11" width="1" height="1" fill="#d99a4e"></rect><rect x="16" y="11" width="1" height="1" fill="#9c6a2c"></rect><rect x="17" y="11" width="1" height="1" fill="#d99a4e"></rect><rect x="18" y="11" width="1" height="1" fill="#9c6a2c"></rect><rect x="19" y="11" width="1" height="1" fill="#d99a4e"></rect><rect x="20" y="11" width="1" height="1" fill="#9c6a2c"></rect><rect x="21" y="11" width="1" height="1" fill="#d99a4e"></rect><rect x="22" y="11" width="1" height="1" fill="#9c6a2c"></rect><rect x="23" y="11" width="1" height="1" fill="#d99a4e"></rect><rect x="24" y="11" width="1" height="1" fill="#9c6a2c"></rect><rect x="25" y="11" width="1" height="1" fill="#d99a4e"></rect><rect x="26" y="11" width="1" height="1" fill="#9c6a2c"></rect><rect x="27" y="11" width="1" height="1" fill="#d99a4e"></rect><rect x="28" y="11" width="1" height="1" fill="#9c6a2c"></rect><rect x="29" y="11" width="1" height="1" fill="#d99a4e"></rect><rect x="30" y="11" width="1" height="1" fill="#9c6a2c"></rect><rect x="31" y="11" width="1" height="1" fill="#d99a4e"></rect><rect x="0" y="12" width="1" height="1" fill="#d99a4e"></rect><rect x="1" y="12" width="1" height="1" fill="#9c6a2c"></rect><rect x="2" y="12" width="1" height="1" fill="#d99a4e"></rect><rect x="3" y="12" width="1" height="1" fill="#9c6a2c"></rect><rect x="4" y="12" width="1" height="1" fill="#d99a4e"></rect><rect x="5" y="12" width="1" height="1" fill="#9c6a2c"></rect><rect x="6" y="12" width="1" height="1" fill="#d99a4e"></rect><rect x="7" y="12" width="1" height="1" fill="#9c6a2c"></rect><rect x="8" y="12" width="1" height="1" fill="#d99a4e"></rect><rect x="9" y="12" width="1" height="1" fill="#9c6a2c"></rect><rect x="10" y="12" width="1" height="1" fill="#d99a4e"></rect><rect x="11" y="12" width="1" height="1" fill="#9c6a2c"></rect><rect x="12" y="12" width="1" height="1" fill="#d99a4e"></rect><rect x="13" y="12" width="1" height="1" fill="#9c6a2c"></rect><rect x="14" y="12" width="1" height="1" fill="#d99a4e"></rect><rect x="15" y="12" width="1" height="1" fill="#9c6a2c"></rect><rect x="16" y="12" width="1" height="1" fill="#d99a4e"></rect><rect x="17" y="12" width="1" height="1" fill="#9c6a2c"></rect><rect x="18" y="12" width="1" height="1" fill="#d99a4e"></rect><rect x="19" y="12" width="1" height="1" fill="#9c6a2c"></rect><rect x="20" y="12" width="1" height="1" fill="#d99a4e"></rect><rect x="21" y="12" width="1" height="1" fill="#9c6a2c"></rect><rect x="22" y="12" width="1" height="1" fill="#d99a4e"></rect><rect x="23" y="12" width="1" height="1" fill="#9c6a2c"></rect><rect x="24" y="12" width="1" height="1" fill="#d99a4e"></rect><rect x="25" y="12" width="1" height="1" fill="#9c6a2c"></rect><rect x="26" y="12" width="1" height="1" fill="#d99a4e"></rect><rect x="27" y="12" width="1" height="1" fill="#9c6a2c"></rect><rect x="28" y="12" width="1" height="1" fill="#d99a4e"></rect><rect x="29" y="12" width="1" height="1" fill="#9c6a2c"></rect><rect x="30" y="12" width="1" height="1" fill="#d99a4e"></rect><rect x="31" y="12" width="1" height="1" fill="#9c6a2c"></rect><rect x="0" y="13" width="3" height="1" fill="#140d05"></rect><rect x="3" y="13" width="1" height="1" fill="#c98a3a"></rect><rect x="4" y="13" width="3" height="1" fill="#ffce7a"></rect><rect x="7" y="13" width="1" height="1" fill="#c98a3a"></rect><rect x="8" y="13" width="5" height="1" fill="#140d05"></rect><rect x="13" y="13" width="1" height="1" fill="#b5641f"></rect><rect x="14" y="13" width="3" height="1" fill="#ff9f4d"></rect><rect x="17" y="13" width="1" height="1" fill="#b5641f"></rect><rect x="18" y="13" width="5" height="1" fill="#140d05"></rect><rect x="23" y="13" width="1" height="1" fill="#c98a3a"></rect><rect x="24" y="13" width="3" height="1" fill="#ffce7a"></rect><rect x="27" y="13" width="1" height="1" fill="#c98a3a"></rect><rect x="28" y="13" width="4" height="1" fill="#140d05"></rect><rect x="0" y="14" width="3" height="1" fill="#140d05"></rect><rect x="3" y="14" width="1" height="1" fill="#c98a3a"></rect><rect x="4" y="14" width="3" height="1" fill="#ffce7a"></rect><rect x="7" y="14" width="1" height="1" fill="#c98a3a"></rect><rect x="8" y="14" width="5" height="1" fill="#140d05"></rect><rect x="13" y="14" width="1" height="1" fill="#b5641f"></rect><rect x="14" y="14" width="3" height="1" fill="#ff9f4d"></rect><rect x="17" y="14" width="1" height="1" fill="#b5641f"></rect><rect x="18" y="14" width="5" height="1" fill="#140d05"></rect><rect x="23" y="14" width="1" height="1" fill="#c98a3a"></rect><rect x="24" y="14" width="3" height="1" fill="#ffce7a"></rect><rect x="27" y="14" width="1" height="1" fill="#c98a3a"></rect><rect x="28" y="14" width="4" height="1" fill="#140d05"></rect><rect x="0" y="15" width="3" height="1" fill="#140d05"></rect><rect x="3" y="15" width="1" height="1" fill="#c98a3a"></rect><rect x="4" y="15" width="3" height="1" fill="#ffce7a"></rect><rect x="7" y="15" width="1" height="1" fill="#c98a3a"></rect><rect x="8" y="15" width="5" height="1" fill="#140d05"></rect><rect x="13" y="15" width="1" height="1" fill="#b5641f"></rect><rect x="14" y="15" width="3" height="1" fill="#ff9f4d"></rect><rect x="17" y="15" width="1" height="1" fill="#b5641f"></rect><rect x="18" y="15" width="5" height="1" fill="#140d05"></rect><rect x="23" y="15" width="1" height="1" fill="#c98a3a"></rect><rect x="24" y="15" width="3" height="1" fill="#ffce7a"></rect><rect x="27" y="15" width="1" height="1" fill="#c98a3a"></rect><rect x="28" y="15" width="4" height="1" fill="#140d05"></rect><rect x="0" y="16" width="3" height="1" fill="#140d05"></rect><rect x="3" y="16" width="1" height="1" fill="#c98a3a"></rect><rect x="4" y="16" width="3" height="1" fill="#ffce7a"></rect><rect x="7" y="16" width="1" height="1" fill="#c98a3a"></rect><rect x="8" y="16" width="5" height="1" fill="#140d05"></rect><rect x="13" y="16" width="1" height="1" fill="#b5641f"></rect><rect x="14" y="16" width="3" height="1" fill="#ff9f4d"></rect><rect x="17" y="16" width="1" height="1" fill="#b5641f"></rect><rect x="18" y="16" width="5" height="1" fill="#140d05"></rect><rect x="23" y="16" width="1" height="1" fill="#c98a3a"></rect><rect x="24" y="16" width="3" height="1" fill="#ffce7a"></rect><rect x="27" y="16" width="1" height="1" fill="#c98a3a"></rect><rect x="28" y="16" width="4" height="1" fill="#140d05"></rect><rect x="0" y="17" width="3" height="1" fill="#140d05"></rect><rect x="3" y="17" width="1" height="1" fill="#c98a3a"></rect><rect x="4" y="17" width="3" height="1" fill="#ffce7a"></rect><rect x="7" y="17" width="1" height="1" fill="#c98a3a"></rect><rect x="8" y="17" width="5" height="1" fill="#140d05"></rect><rect x="13" y="17" width="1" height="1" fill="#b5641f"></rect><rect x="14" y="17" width="3" height="1" fill="#ff9f4d"></rect><rect x="17" y="17" width="1" height="1" fill="#b5641f"></rect><rect x="18" y="17" width="5" height="1" fill="#140d05"></rect><rect x="23" y="17" width="1" height="1" fill="#c98a3a"></rect><rect x="24" y="17" width="3" height="1" fill="#ffce7a"></rect><rect x="27" y="17" width="1" height="1" fill="#c98a3a"></rect><rect x="28" y="17" width="4" height="1" fill="#140d05"></rect><rect x="0" y="18" width="3" height="1" fill="#140d05"></rect><rect x="3" y="18" width="1" height="1" fill="#c98a3a"></rect><rect x="4" y="18" width="3" height="1" fill="#ffce7a"></rect><rect x="7" y="18" width="1" height="1" fill="#c98a3a"></rect><rect x="8" y="18" width="5" height="1" fill="#140d05"></rect><rect x="13" y="18" width="1" height="1" fill="#b5641f"></rect><rect x="14" y="18" width="3" height="1" fill="#ff9f4d"></rect><rect x="17" y="18" width="1" height="1" fill="#b5641f"></rect><rect x="18" y="18" width="5" height="1" fill="#140d05"></rect><rect x="23" y="18" width="1" height="1" fill="#c98a3a"></rect><rect x="24" y="18" width="3" height="1" fill="#ffce7a"></rect><rect x="27" y="18" width="1" height="1" fill="#c98a3a"></rect><rect x="28" y="18" width="4" height="1" fill="#140d05"></rect><rect x="0" y="19" width="1" height="1" fill="#4d3415"></rect><rect x="1" y="19" width="1" height="1" fill="#8a5e27"></rect><rect x="2" y="19" width="1" height="1" fill="#4d3415"></rect><rect x="3" y="19" width="1" height="1" fill="#8a5e27"></rect><rect x="4" y="19" width="1" height="1" fill="#4d3415"></rect><rect x="5" y="19" width="1" height="1" fill="#8a5e27"></rect><rect x="6" y="19" width="1" height="1" fill="#4d3415"></rect><rect x="7" y="19" width="1" height="1" fill="#8a5e27"></rect><rect x="8" y="19" width="1" height="1" fill="#4d3415"></rect><rect x="9" y="19" width="1" height="1" fill="#8a5e27"></rect><rect x="10" y="19" width="1" height="1" fill="#4d3415"></rect><rect x="11" y="19" width="1" height="1" fill="#8a5e27"></rect><rect x="12" y="19" width="1" height="1" fill="#4d3415"></rect><rect x="13" y="19" width="1" height="1" fill="#8a5e27"></rect><rect x="14" y="19" width="1" height="1" fill="#4d3415"></rect><rect x="15" y="19" width="1" height="1" fill="#8a5e27"></rect><rect x="16" y="19" width="1" height="1" fill="#4d3415"></rect><rect x="17" y="19" width="1" height="1" fill="#8a5e27"></rect><rect x="18" y="19" width="1" height="1" fill="#4d3415"></rect><rect x="19" y="19" width="1" height="1" fill="#8a5e27"></rect><rect x="20" y="19" width="1" height="1" fill="#4d3415"></rect><rect x="21" y="19" width="1" height="1" fill="#8a5e27"></rect><rect x="22" y="19" width="1" height="1" fill="#4d3415"></rect><rect x="23" y="19" width="1" height="1" fill="#8a5e27"></rect><rect x="24" y="19" width="1" height="1" fill="#4d3415"></rect><rect x="25" y="19" width="1" height="1" fill="#8a5e27"></rect><rect x="26" y="19" width="1" height="1" fill="#4d3415"></rect><rect x="27" y="19" width="1" height="1" fill="#8a5e27"></rect><rect x="28" y="19" width="1" height="1" fill="#4d3415"></rect><rect x="29" y="19" width="1" height="1" fill="#8a5e27"></rect><rect x="30" y="19" width="1" height="1" fill="#4d3415"></rect><rect x="31" y="19" width="1" height="1" fill="#8a5e27"></rect><rect x="0" y="20" width="1" height="1" fill="#8a5e27"></rect><rect x="1" y="20" width="1" height="1" fill="#4d3415"></rect><rect x="2" y="20" width="1" height="1" fill="#8a5e27"></rect><rect x="3" y="20" width="1" height="1" fill="#4d3415"></rect><rect x="4" y="20" width="1" height="1" fill="#8a5e27"></rect><rect x="5" y="20" width="1" height="1" fill="#4d3415"></rect><rect x="6" y="20" width="1" height="1" fill="#8a5e27"></rect><rect x="7" y="20" width="1" height="1" fill="#4d3415"></rect><rect x="8" y="20" width="1" height="1" fill="#8a5e27"></rect><rect x="9" y="20" width="1" height="1" fill="#4d3415"></rect><rect x="10" y="20" width="1" height="1" fill="#8a5e27"></rect><rect x="11" y="20" width="1" height="1" fill="#4d3415"></rect><rect x="12" y="20" width="1" height="1" fill="#8a5e27"></rect><rect x="13" y="20" width="1" height="1" fill="#4d3415"></rect><rect x="14" y="20" width="1" height="1" fill="#8a5e27"></rect><rect x="15" y="20" width="1" height="1" fill="#4d3415"></rect><rect x="16" y="20" width="1" height="1" fill="#8a5e27"></rect><rect x="17" y="20" width="1" height="1" fill="#4d3415"></rect><rect x="18" y="20" width="1" height="1" fill="#8a5e27"></rect><rect x="19" y="20" width="1" height="1" fill="#4d3415"></rect><rect x="20" y="20" width="1" height="1" fill="#8a5e27"></rect><rect x="21" y="20" width="1" height="1" fill="#4d3415"></rect><rect x="22" y="20" width="1" height="1" fill="#8a5e27"></rect><rect x="23" y="20" width="1" height="1" fill="#4d3415"></rect><rect x="24" y="20" width="1" height="1" fill="#8a5e27"></rect><rect x="25" y="20" width="1" height="1" fill="#4d3415"></rect><rect x="26" y="20" width="1" height="1" fill="#8a5e27"></rect><rect x="27" y="20" width="1" height="1" fill="#4d3415"></rect><rect x="28" y="20" width="1" height="1" fill="#8a5e27"></rect><rect x="29" y="20" width="1" height="1" fill="#4d3415"></rect><rect x="30" y="20" width="1" height="1" fill="#8a5e27"></rect><rect x="31" y="20" width="1" height="1" fill="#4d3415"></rect><rect x="0" y="21" width="32" height="1" fill="#36240f"></rect></g></svg>